# xmcd CD database file
#
# Track frame offsets:
#	150
#	44070
#	55611
#	71408
#	92361
#	121404
#	140444
#	152358
#	189567
#
# Disc length: 2738 seconds
#
# Revision: 0
# Processed by: cddbd v1.5.2PL0 Copyright (c) Steve Scherf et al.
# Submitted via: CDex 1.83
#
DISCID=710ab009
DTITLE=Falzone Giovanni - Migrante
DYEAR=2017
DGENRE=Jazz
TTITLE0=A Ovest di Eden
TTITLE1=La selezione
TTITLE2=Fuori dal porto
TTITLE3=In stiva
TTITLE4=L'avvistamento
TTITLE5=Il sogno e la speranza
TTITLE6=Salvataggio
TTITLE7=Laila (la conta degli assenti)
TTITLE8=Radici
EXTD=YEAR: 2017
EXTT0=
EXTT1=
EXTT2=
EXTT3=
EXTT4=
EXTT5=
EXTT6=
EXTT7=
EXTT8=
PLAYORDER=
